<svg width="174" height="44" viewBox="0 0 174 44" fill="none" xmlns="http://www.w3.org/2000/svg">
<rect width="174" height="44" fill="#12042B"/>
<rect y="1" width="42" height="42" rx="10" fill="#0B3CEE"/>
<path d="M21 34C19.4241 34 17.8637 33.6896 16.4078 33.0866C14.9519 32.4835 13.629 31.5996 12.5147 30.4853C11.4004 29.371 10.5165 28.0481 9.91344 26.5922C9.31039 25.1363 9 23.5759 9 22C9 20.4241 9.31039 18.8637 9.91345 17.4078C10.5165 15.9519 11.4004 14.629 12.5147 13.5147C13.629 12.4004 14.9519 11.5165 16.4078 10.9134C17.8637 10.3104 19.4241 10 21 10L21 22L21 34Z" fill="#000201"/>
<path d="M21 10C22.5759 10 24.1363 10.3104 25.5922 10.9134C27.0481 11.5165 28.371 12.4004 29.4853 13.5147C30.5996 14.629 31.4835 15.9519 32.0866 17.4078C32.6896 18.8637 33 20.4241 33 22C33 23.5759 32.6896 25.1363 32.0866 26.5922C31.4835 28.0481 30.5996 29.371 29.4853 30.4853C28.371 31.5996 27.0481 32.4835 25.5922 33.0866C24.1363 33.6896 22.5759 34 21 34L21 22L21 10Z" fill="#F9F9F9"/>
<path d="M64.56 34V10.96H66.912V34H64.56ZM77.8368 34V13.216H69.7888V10.96H88.2368V13.216H80.1888V34H77.8368ZM90.4825 23.488V21.472H100.083V23.488H90.4825ZM104.56 34V10.96H106.912V31.744H117.856V34H104.56ZM125.528 34.48C124.226 34.48 123.133 34.2453 122.248 33.776C121.373 33.3067 120.717 32.6827 120.28 31.904C119.842 31.1253 119.624 30.2773 119.624 29.36C119.624 28.4213 119.81 27.6213 120.184 26.96C120.568 26.288 121.085 25.7387 121.736 25.312C122.397 24.8853 123.16 24.56 124.024 24.336C124.898 24.1227 125.864 23.936 126.92 23.776C127.986 23.6053 129.026 23.4613 130.04 23.344C131.064 23.216 131.96 23.0933 132.728 22.976L131.896 23.488C131.928 21.7813 131.597 20.5173 130.904 19.696C130.21 18.8747 129.005 18.464 127.288 18.464C126.104 18.464 125.101 18.7307 124.28 19.264C123.469 19.7973 122.898 20.64 122.568 21.792L120.28 21.12C120.674 19.5733 121.469 18.3733 122.664 17.52C123.858 16.6667 125.41 16.24 127.32 16.24C128.898 16.24 130.237 16.5387 131.336 17.136C132.445 17.7227 133.229 18.576 133.688 19.696C133.901 20.1973 134.04 20.7573 134.104 21.376C134.168 21.9947 134.2 22.624 134.2 23.264V34H132.104V29.664L132.712 29.92C132.125 31.4027 131.213 32.5333 129.976 33.312C128.738 34.0907 127.256 34.48 125.528 34.48ZM125.8 32.448C126.898 32.448 127.858 32.2507 128.68 31.856C129.501 31.4613 130.162 30.9227 130.664 30.24C131.165 29.5467 131.49 28.768 131.64 27.904C131.768 27.3493 131.837 26.7413 131.848 26.08C131.858 25.408 131.864 24.9067 131.864 24.576L132.76 25.04C131.96 25.1467 131.09 25.2533 130.152 25.36C129.224 25.4667 128.306 25.5893 127.4 25.728C126.504 25.8667 125.693 26.032 124.968 26.224C124.477 26.3627 124.002 26.56 123.544 26.816C123.085 27.0613 122.706 27.392 122.408 27.808C122.12 28.224 121.976 28.7413 121.976 29.36C121.976 29.8613 122.098 30.3467 122.344 30.816C122.6 31.2853 123.005 31.6747 123.56 31.984C124.125 32.2933 124.872 32.448 125.8 32.448ZM150.845 34V25.184C150.845 24.224 150.754 23.344 150.573 22.544C150.392 21.7333 150.098 21.0293 149.693 20.432C149.298 19.824 148.781 19.3547 148.141 19.024C147.512 18.6933 146.744 18.528 145.837 18.528C145.005 18.528 144.269 18.672 143.629 18.96C143 19.248 142.466 19.664 142.029 20.208C141.602 20.7413 141.277 21.392 141.053 22.16C140.829 22.928 140.717 23.8027 140.717 24.784L139.053 24.416C139.053 22.6453 139.362 21.1573 139.981 19.952C140.6 18.7467 141.453 17.8347 142.541 17.216C143.629 16.5973 144.877 16.288 146.285 16.288C147.32 16.288 148.221 16.448 148.989 16.768C149.768 17.088 150.424 17.52 150.957 18.064C151.501 18.608 151.938 19.232 152.269 19.936C152.6 20.6293 152.84 21.3707 152.989 22.16C153.138 22.9387 153.213 23.7173 153.213 24.496V34H150.845ZM138.349 34V16.72H140.477V20.976H140.717V34H138.349ZM163.975 34.48C162.365 34.48 160.989 34.08 159.847 33.28C158.706 32.4693 157.831 31.376 157.223 30C156.615 28.624 156.311 27.072 156.311 25.344C156.311 23.6267 156.61 22.08 157.207 20.704C157.815 19.328 158.685 18.24 159.815 17.44C160.946 16.64 162.301 16.24 163.879 16.24C165.501 16.24 166.866 16.6347 167.975 17.424C169.085 18.2133 169.922 19.296 170.487 20.672C171.063 22.0373 171.351 23.5947 171.351 25.344C171.351 27.0613 171.069 28.6133 170.503 30C169.938 31.376 169.106 32.4693 168.007 33.28C166.909 34.08 165.565 34.48 163.975 34.48ZM164.215 32.288C165.442 32.288 166.455 31.9893 167.255 31.392C168.055 30.7947 168.653 29.9733 169.047 28.928C169.442 27.872 169.639 26.6773 169.639 25.344C169.639 23.9893 169.442 22.7947 169.047 21.76C168.653 20.7147 168.055 19.8987 167.255 19.312C166.466 18.7253 165.469 18.432 164.263 18.432C163.026 18.432 162.002 18.736 161.191 19.344C160.381 19.952 159.778 20.7787 159.383 21.824C158.999 22.8693 158.807 24.0427 158.807 25.344C158.807 26.656 159.005 27.84 159.399 28.896C159.805 29.9413 160.407 30.768 161.207 31.376C162.007 31.984 163.01 32.288 164.215 32.288ZM169.639 34V20.992H169.383V10.96H171.751V34H169.639Z" fill="#F9F9F9"/>
</svg>
