<svg width="267" height="44" viewBox="0 0 267 44" fill="none" xmlns="http://www.w3.org/2000/svg">
<mask id="path-1-outside-1_25_354" maskUnits="userSpaceOnUse" x="0" y="0.57666" width="267" height="43" fill="black">
<rect fill="white" y="0.57666" width="267" height="43"/>
<path d="M44.44 12.0407C45.848 14.4087 46.552 17.0167 46.552 19.8647C46.552 22.7127 45.848 25.3367 44.44 27.7367C43.032 30.1047 41.192 32.0247 38.92 33.4967C36.68 34.9687 34.248 36.1047 31.624 36.9047C29 37.7047 26.376 38.1047 23.752 38.1047C21.704 38.1047 19.624 37.8487 17.512 37.3367C15.4 36.8567 13.352 36.1047 11.368 35.0807C9.384 34.0567 7.624 32.8407 6.088 31.4327C4.552 30.0247 3.32 28.3287 2.392 26.3447C1.464 24.3287 1 22.1687 1 19.8647C1 17.0167 1.704 14.4087 3.112 12.0407C4.52 9.64066 6.344 7.70466 8.584 6.23266C10.824 4.72866 13.256 3.57666 15.88 2.77666C18.536 1.97666 21.16 1.57666 23.752 1.57666C26.376 1.57666 29 1.97666 31.624 2.77666C34.248 3.57666 36.68 4.72866 38.92 6.23266C41.192 7.70466 43.032 9.64066 44.44 12.0407ZM39.352 7.43266C35.064 4.00866 29.864 2.29666 23.752 2.29666C17.64 2.29666 12.44 4.00866 8.152 7.43266C3.864 10.8567 1.72 15.0007 1.72 19.8647C1.72 24.6967 3.864 28.8247 8.152 32.2487C12.44 35.6727 17.64 37.3847 23.752 37.3847C27.752 37.3847 31.448 36.6007 34.84 35.0327C38.232 33.4647 40.904 31.3367 42.856 28.6487C44.84 25.9607 45.832 23.0327 45.832 19.8647C45.832 15.0007 43.672 10.8567 39.352 7.43266ZM31.096 26.9687C29.08 28.5687 26.632 29.3687 23.752 29.3687C20.872 29.3687 18.44 28.5847 16.456 27.0167C14.504 25.4487 13.528 23.1287 13.528 20.0567C13.528 16.9847 14.52 14.6327 16.504 13.0007C18.488 11.3367 20.984 10.5207 23.992 10.5527C27.096 10.6167 29.56 11.4487 31.384 13.0487C33.208 14.6167 34.12 16.9527 34.12 20.0567C34.12 23.0327 33.112 25.3367 31.096 26.9687ZM33.4 20.0567C33.4 17.2087 32.552 15.0327 30.856 13.5287C29.192 12.0247 26.904 11.2727 23.992 11.2727C21.08 11.2727 18.728 12.0407 16.936 13.5767C15.144 15.0807 14.248 17.2407 14.248 20.0567C14.248 22.7767 15.112 24.8887 16.84 26.3927C18.6 27.8967 20.904 28.6487 23.752 28.6487C26.568 28.6487 28.872 27.8967 30.664 26.3927C32.488 24.8567 33.4 22.7447 33.4 20.0567Z"/>
<path d="M87.6779 37.3367H74.6699V18.5687H69.7739C69.5499 20.3287 69.3099 21.9127 69.0539 23.3207C68.7979 24.6967 68.3499 26.3607 67.7099 28.3127C67.0699 30.2327 66.3179 31.8487 65.4539 33.1607C64.5899 34.4407 63.4219 35.5447 61.9499 36.4727C60.4779 37.4007 58.8139 37.8647 56.9579 37.8647C55.9979 37.8647 53.9819 37.7527 50.9099 37.5287H50.1899L50.3339 27.4007H51.0539C51.6619 27.4327 52.6059 27.4487 53.8859 27.4487C55.7739 27.4487 57.1499 25.0167 58.0139 20.1527C58.5899 16.7607 59.0699 13.2887 59.4539 9.73666V8.87266H87.5819L87.6779 37.3367ZM75.3899 36.6167H86.9579L86.8619 9.59266H60.1739V9.78466C59.9499 11.5767 59.7579 13.0007 59.5979 14.0567C59.4699 15.1127 59.3099 16.3287 59.1179 17.7047C58.9259 19.0807 58.7339 20.1527 58.5419 20.9207C58.3819 21.6887 58.1739 22.5367 57.9179 23.4647C57.6939 24.3927 57.4539 25.0967 57.1979 25.5767C56.9419 26.0567 56.6379 26.5207 56.2859 26.9687C55.9659 27.4167 55.5979 27.7367 55.1819 27.9287C54.7979 28.0887 54.3659 28.1687 53.8859 28.1687L51.0539 28.1207L50.9579 36.8087L56.3339 37.0967C58.0619 37.1927 59.6139 36.8887 60.9899 36.1847C62.3979 35.4807 63.5339 34.5367 64.3979 33.3527C65.2939 32.1687 66.0619 30.6807 66.7019 28.8887C67.3739 27.0967 67.8699 25.3527 68.1899 23.6567C68.5419 21.9287 68.8459 19.9927 69.1019 17.8487H75.3899V36.6167Z"/>
<path d="M128.437 8.87266V37.3367H116.533V28.2167H105.637L111.397 37.4327H90.2766V27.5927H95.7006C95.7006 27.5607 95.6846 27.5127 95.6526 27.4487V27.3527C95.6526 25.3047 97.1566 24.1207 100.165 23.8007V23.2247C99.0766 23.1927 98.0206 23.0487 96.9966 22.7927C96.0046 22.5047 95.0286 22.1047 94.0686 21.5927C93.1086 21.0807 92.3246 20.3447 91.7166 19.3847C91.1406 18.4247 90.8526 17.3207 90.8526 16.0727C90.8526 11.2727 95.7326 8.87266 105.493 8.87266H128.437ZM127.717 36.6167V9.59266H105.493C103.477 9.59266 101.701 9.68866 100.165 9.88066C98.6286 10.0727 97.1726 10.3927 95.7966 10.8407C94.4526 11.2887 93.4126 11.9607 92.6766 12.8567C91.9406 13.7207 91.5726 14.7927 91.5726 16.0727C91.5726 18.1527 92.4686 19.7527 94.2606 20.8727C96.0526 21.9927 98.2606 22.5527 100.885 22.5527V24.4727C98.8686 24.6647 97.5886 25.0487 97.0446 25.6247C96.5006 26.2007 96.3086 27.0967 96.4686 28.3127H90.9966V36.7127H110.101L104.341 27.4967H117.253V36.6167H127.717ZM117.253 16.3127V21.1127H105.685C103.125 21.1127 101.845 20.3927 101.845 18.9527C101.845 18.1207 102.229 17.4807 102.997 17.0327C103.765 16.5527 104.629 16.3127 105.589 16.3127H117.253ZM116.533 20.3927V17.0327H105.589C104.757 17.0327 104.037 17.2247 103.429 17.6087C102.853 17.9607 102.565 18.4087 102.565 18.9527C102.565 19.9127 103.605 20.3927 105.685 20.3927H116.533Z"/>
<path d="M178.281 27.4967H183.753V37.4327H162.729L168.489 25.9607H157.497V37.3367H145.593V2.29666H157.497V15.5447H157.977L171.129 2.29666H185.625L177.753 11.6567C174.553 15.4647 168.777 18.1847 160.425 19.8167V20.5367C160.809 20.4087 162.409 19.8327 165.225 18.8087C167.753 18.0087 169.801 17.6087 171.369 17.6087C173.737 17.6087 175.449 18.1847 176.505 19.3367C177.561 20.4567 178.137 22.1847 178.233 24.5207C178.265 25.1607 178.281 26.1527 178.281 27.4967ZM177.225 22.1207C176.969 20.9047 176.329 19.9767 175.305 19.3367C174.281 18.6647 172.969 18.3287 171.369 18.3287C169.705 18.3287 167.881 18.6807 165.897 19.3847C162.889 20.4727 160.825 21.1927 159.705 21.5447V19.2407C168.249 17.6087 174.089 14.9207 177.225 11.1767L184.041 3.01666H171.417L158.265 16.2647H156.777V3.01666H146.313V36.6167H156.777V25.2407H169.689L163.881 36.7127H183.033V28.2167H177.561C177.561 25.1767 177.449 23.1447 177.225 22.1207Z"/>
<path d="M196.97 19.3847C200.778 19.3847 204.458 20.3927 208.01 22.4087V21.0167C208.01 19.8967 207.434 19.1287 206.282 18.7127C205.546 18.4567 204.266 18.3287 202.442 18.3287H187.706L187.658 8.87266H206.954C211.626 8.87266 215.13 9.92866 217.466 12.0407C219.802 14.1527 220.97 17.5447 220.97 22.2167L221.018 27.5927H225.77V37.3847H212.186C211.162 37.3847 210.314 36.9527 209.642 36.0887C209.002 35.1927 208.682 34.2647 208.682 33.3047C208.682 31.9927 209.306 30.5847 210.554 29.0807L210.17 28.9367C208.986 31.7527 207.242 33.9447 204.938 35.5127C202.634 37.0487 199.93 37.8167 196.826 37.8167C194.906 37.8167 193.05 37.4967 191.258 36.8567C189.498 36.2167 187.962 35.1447 186.65 33.6407C185.37 32.1367 184.73 30.3447 184.73 28.2647C184.73 26.6007 185.114 25.1607 185.882 23.9447C186.65 22.7287 187.658 21.8167 188.906 21.2087C190.186 20.5687 191.482 20.1047 192.794 19.8167C194.138 19.5287 195.53 19.3847 196.97 19.3847ZM185.45 28.2647C185.45 30.8887 186.554 33.0167 188.762 34.6487C190.97 36.2807 193.658 37.0967 196.826 37.0967C199.61 37.0967 202.154 36.3927 204.458 34.9847C206.794 33.5447 208.57 31.2087 209.786 27.9767L211.802 28.8407C210.202 30.2487 209.402 31.7367 209.402 33.3047C209.402 34.1687 209.674 34.9527 210.218 35.6567C210.762 36.3287 211.418 36.6647 212.186 36.6647H225.05V28.3127H220.298L220.25 22.2167C220.25 17.8007 219.162 14.6007 216.986 12.6167C214.842 10.6007 211.498 9.59266 206.954 9.59266H188.378L188.426 17.6087H202.442C204.746 17.6087 206.362 17.8807 207.29 18.4247C208.25 18.9367 208.73 19.8007 208.73 21.0167C208.73 22.1687 208.714 23.0487 208.682 23.6567C204.906 21.2887 201.002 20.1047 196.97 20.1047C193.578 20.1047 190.81 20.7927 188.666 22.1687C186.522 23.5447 185.45 25.5767 185.45 28.2647ZM197.018 28.2167C197.018 27.4807 197.258 26.9047 197.738 26.4887C198.25 26.0407 198.746 25.7687 199.226 25.6727C199.706 25.5447 200.202 25.4807 200.714 25.4807C201.482 25.4807 202.426 25.6087 203.546 25.8647C204.698 26.1207 205.658 26.3767 206.426 26.6327L207.578 27.0647C207.514 27.1607 207.418 27.2887 207.29 27.4487C207.194 27.6087 206.938 27.8967 206.522 28.3127C206.106 28.7287 205.658 29.0967 205.178 29.4167C204.698 29.7367 204.074 30.0247 203.306 30.2807C202.538 30.5367 201.754 30.6647 200.954 30.6647C199.898 30.6647 198.97 30.4727 198.17 30.0887C197.402 29.6727 197.018 29.0487 197.018 28.2167ZM197.738 28.2167C197.738 28.8567 198.074 29.3047 198.746 29.5607C199.45 29.8167 200.186 29.9447 200.954 29.9447C203.098 29.9447 204.922 29.1127 206.426 27.4487C203.994 26.6167 202.106 26.2007 200.762 26.2007C198.746 26.2007 197.738 26.8727 197.738 28.2167Z"/>
<path d="M265.814 42.1847H252.806V37.3367H239.27V42.1847H226.214L226.406 27.6407H228.854C230.102 27.6407 231.254 26.9527 232.31 25.5767C233.398 24.1687 234.278 22.3607 234.95 20.1527C235.654 17.9127 236.182 15.9927 236.534 14.3927C236.886 12.7927 237.174 11.2407 237.398 9.73666V8.87266H261.014L261.11 27.6407H265.622L265.814 42.1847ZM253.526 41.4647H265.094L264.95 28.3607H260.39L260.294 9.59266H238.118V9.78466C237.766 12.2807 237.318 14.5847 236.774 16.6967C236.23 18.8087 235.574 20.7767 234.806 22.6007C234.07 24.3927 233.19 25.8007 232.166 26.8247C231.142 27.8487 230.038 28.3607 228.854 28.3607H227.078L226.982 41.4647H238.55V36.6167H253.526V41.4647ZM248.822 28.3607H247.142C246.822 28.3607 246.486 28.3927 246.134 28.4567C245.814 28.4887 245.494 28.5367 245.174 28.6007C244.886 28.6647 244.534 28.7767 244.118 28.9367C243.734 29.0967 243.398 29.2247 243.11 29.3207C242.854 29.4167 242.486 29.5767 242.006 29.8007C241.558 30.0247 241.222 30.2007 240.998 30.3287C240.774 30.4247 240.406 30.6167 239.894 30.9047C239.382 31.1607 239.03 31.3527 238.838 31.4807C238.678 31.5767 238.31 31.7847 237.734 32.1047C237.19 32.4247 236.854 32.6167 236.726 32.6807L235.622 30.6647C238.726 29.0967 241.238 27.1927 243.158 24.9527C245.078 22.7127 246.246 20.3447 246.662 17.8487H248.822V28.3607ZM248.102 27.6407V18.5687H247.238C246.662 21.1927 245.398 23.5607 243.446 25.6727C241.526 27.7847 239.254 29.5607 236.63 31.0007L237.014 31.6727C239.446 30.3287 240.918 29.5287 241.43 29.2727C243.67 28.1847 245.574 27.6407 247.142 27.6407H248.102Z"/>
</mask>
<path d="M44.44 12.0407C45.848 14.4087 46.552 17.0167 46.552 19.8647C46.552 22.7127 45.848 25.3367 44.44 27.7367C43.032 30.1047 41.192 32.0247 38.92 33.4967C36.68 34.9687 34.248 36.1047 31.624 36.9047C29 37.7047 26.376 38.1047 23.752 38.1047C21.704 38.1047 19.624 37.8487 17.512 37.3367C15.4 36.8567 13.352 36.1047 11.368 35.0807C9.384 34.0567 7.624 32.8407 6.088 31.4327C4.552 30.0247 3.32 28.3287 2.392 26.3447C1.464 24.3287 1 22.1687 1 19.8647C1 17.0167 1.704 14.4087 3.112 12.0407C4.52 9.64066 6.344 7.70466 8.584 6.23266C10.824 4.72866 13.256 3.57666 15.88 2.77666C18.536 1.97666 21.16 1.57666 23.752 1.57666C26.376 1.57666 29 1.97666 31.624 2.77666C34.248 3.57666 36.68 4.72866 38.92 6.23266C41.192 7.70466 43.032 9.64066 44.44 12.0407ZM39.352 7.43266C35.064 4.00866 29.864 2.29666 23.752 2.29666C17.64 2.29666 12.44 4.00866 8.152 7.43266C3.864 10.8567 1.72 15.0007 1.72 19.8647C1.72 24.6967 3.864 28.8247 8.152 32.2487C12.44 35.6727 17.64 37.3847 23.752 37.3847C27.752 37.3847 31.448 36.6007 34.84 35.0327C38.232 33.4647 40.904 31.3367 42.856 28.6487C44.84 25.9607 45.832 23.0327 45.832 19.8647C45.832 15.0007 43.672 10.8567 39.352 7.43266ZM31.096 26.9687C29.08 28.5687 26.632 29.3687 23.752 29.3687C20.872 29.3687 18.44 28.5847 16.456 27.0167C14.504 25.4487 13.528 23.1287 13.528 20.0567C13.528 16.9847 14.52 14.6327 16.504 13.0007C18.488 11.3367 20.984 10.5207 23.992 10.5527C27.096 10.6167 29.56 11.4487 31.384 13.0487C33.208 14.6167 34.12 16.9527 34.12 20.0567C34.12 23.0327 33.112 25.3367 31.096 26.9687ZM33.4 20.0567C33.4 17.2087 32.552 15.0327 30.856 13.5287C29.192 12.0247 26.904 11.2727 23.992 11.2727C21.08 11.2727 18.728 12.0407 16.936 13.5767C15.144 15.0807 14.248 17.2407 14.248 20.0567C14.248 22.7767 15.112 24.8887 16.84 26.3927C18.6 27.8967 20.904 28.6487 23.752 28.6487C26.568 28.6487 28.872 27.8967 30.664 26.3927C32.488 24.8567 33.4 22.7447 33.4 20.0567Z" fill="#F9F9F9"/>
<path d="M87.6779 37.3367H74.6699V18.5687H69.7739C69.5499 20.3287 69.3099 21.9127 69.0539 23.3207C68.7979 24.6967 68.3499 26.3607 67.7099 28.3127C67.0699 30.2327 66.3179 31.8487 65.4539 33.1607C64.5899 34.4407 63.4219 35.5447 61.9499 36.4727C60.4779 37.4007 58.8139 37.8647 56.9579 37.8647C55.9979 37.8647 53.9819 37.7527 50.9099 37.5287H50.1899L50.3339 27.4007H51.0539C51.6619 27.4327 52.6059 27.4487 53.8859 27.4487C55.7739 27.4487 57.1499 25.0167 58.0139 20.1527C58.5899 16.7607 59.0699 13.2887 59.4539 9.73666V8.87266H87.5819L87.6779 37.3367ZM75.3899 36.6167H86.9579L86.8619 9.59266H60.1739V9.78466C59.9499 11.5767 59.7579 13.0007 59.5979 14.0567C59.4699 15.1127 59.3099 16.3287 59.1179 17.7047C58.9259 19.0807 58.7339 20.1527 58.5419 20.9207C58.3819 21.6887 58.1739 22.5367 57.9179 23.4647C57.6939 24.3927 57.4539 25.0967 57.1979 25.5767C56.9419 26.0567 56.6379 26.5207 56.2859 26.9687C55.9659 27.4167 55.5979 27.7367 55.1819 27.9287C54.7979 28.0887 54.3659 28.1687 53.8859 28.1687L51.0539 28.1207L50.9579 36.8087L56.3339 37.0967C58.0619 37.1927 59.6139 36.8887 60.9899 36.1847C62.3979 35.4807 63.5339 34.5367 64.3979 33.3527C65.2939 32.1687 66.0619 30.6807 66.7019 28.8887C67.3739 27.0967 67.8699 25.3527 68.1899 23.6567C68.5419 21.9287 68.8459 19.9927 69.1019 17.8487H75.3899V36.6167Z" fill="#F9F9F9"/>
<path d="M128.437 8.87266V37.3367H116.533V28.2167H105.637L111.397 37.4327H90.2766V27.5927H95.7006C95.7006 27.5607 95.6846 27.5127 95.6526 27.4487V27.3527C95.6526 25.3047 97.1566 24.1207 100.165 23.8007V23.2247C99.0766 23.1927 98.0206 23.0487 96.9966 22.7927C96.0046 22.5047 95.0286 22.1047 94.0686 21.5927C93.1086 21.0807 92.3246 20.3447 91.7166 19.3847C91.1406 18.4247 90.8526 17.3207 90.8526 16.0727C90.8526 11.2727 95.7326 8.87266 105.493 8.87266H128.437ZM127.717 36.6167V9.59266H105.493C103.477 9.59266 101.701 9.68866 100.165 9.88066C98.6286 10.0727 97.1726 10.3927 95.7966 10.8407C94.4526 11.2887 93.4126 11.9607 92.6766 12.8567C91.9406 13.7207 91.5726 14.7927 91.5726 16.0727C91.5726 18.1527 92.4686 19.7527 94.2606 20.8727C96.0526 21.9927 98.2606 22.5527 100.885 22.5527V24.4727C98.8686 24.6647 97.5886 25.0487 97.0446 25.6247C96.5006 26.2007 96.3086 27.0967 96.4686 28.3127H90.9966V36.7127H110.101L104.341 27.4967H117.253V36.6167H127.717ZM117.253 16.3127V21.1127H105.685C103.125 21.1127 101.845 20.3927 101.845 18.9527C101.845 18.1207 102.229 17.4807 102.997 17.0327C103.765 16.5527 104.629 16.3127 105.589 16.3127H117.253ZM116.533 20.3927V17.0327H105.589C104.757 17.0327 104.037 17.2247 103.429 17.6087C102.853 17.9607 102.565 18.4087 102.565 18.9527C102.565 19.9127 103.605 20.3927 105.685 20.3927H116.533Z" fill="#F9F9F9"/>
<path d="M178.281 27.4967H183.753V37.4327H162.729L168.489 25.9607H157.497V37.3367H145.593V2.29666H157.497V15.5447H157.977L171.129 2.29666H185.625L177.753 11.6567C174.553 15.4647 168.777 18.1847 160.425 19.8167V20.5367C160.809 20.4087 162.409 19.8327 165.225 18.8087C167.753 18.0087 169.801 17.6087 171.369 17.6087C173.737 17.6087 175.449 18.1847 176.505 19.3367C177.561 20.4567 178.137 22.1847 178.233 24.5207C178.265 25.1607 178.281 26.1527 178.281 27.4967ZM177.225 22.1207C176.969 20.9047 176.329 19.9767 175.305 19.3367C174.281 18.6647 172.969 18.3287 171.369 18.3287C169.705 18.3287 167.881 18.6807 165.897 19.3847C162.889 20.4727 160.825 21.1927 159.705 21.5447V19.2407C168.249 17.6087 174.089 14.9207 177.225 11.1767L184.041 3.01666H171.417L158.265 16.2647H156.777V3.01666H146.313V36.6167H156.777V25.2407H169.689L163.881 36.7127H183.033V28.2167H177.561C177.561 25.1767 177.449 23.1447 177.225 22.1207Z" fill="#F9F9F9"/>
<path d="M196.97 19.3847C200.778 19.3847 204.458 20.3927 208.01 22.4087V21.0167C208.01 19.8967 207.434 19.1287 206.282 18.7127C205.546 18.4567 204.266 18.3287 202.442 18.3287H187.706L187.658 8.87266H206.954C211.626 8.87266 215.13 9.92866 217.466 12.0407C219.802 14.1527 220.97 17.5447 220.97 22.2167L221.018 27.5927H225.77V37.3847H212.186C211.162 37.3847 210.314 36.9527 209.642 36.0887C209.002 35.1927 208.682 34.2647 208.682 33.3047C208.682 31.9927 209.306 30.5847 210.554 29.0807L210.17 28.9367C208.986 31.7527 207.242 33.9447 204.938 35.5127C202.634 37.0487 199.93 37.8167 196.826 37.8167C194.906 37.8167 193.05 37.4967 191.258 36.8567C189.498 36.2167 187.962 35.1447 186.65 33.6407C185.37 32.1367 184.73 30.3447 184.73 28.2647C184.73 26.6007 185.114 25.1607 185.882 23.9447C186.65 22.7287 187.658 21.8167 188.906 21.2087C190.186 20.5687 191.482 20.1047 192.794 19.8167C194.138 19.5287 195.53 19.3847 196.97 19.3847ZM185.45 28.2647C185.45 30.8887 186.554 33.0167 188.762 34.6487C190.97 36.2807 193.658 37.0967 196.826 37.0967C199.61 37.0967 202.154 36.3927 204.458 34.9847C206.794 33.5447 208.57 31.2087 209.786 27.9767L211.802 28.8407C210.202 30.2487 209.402 31.7367 209.402 33.3047C209.402 34.1687 209.674 34.9527 210.218 35.6567C210.762 36.3287 211.418 36.6647 212.186 36.6647H225.05V28.3127H220.298L220.25 22.2167C220.25 17.8007 219.162 14.6007 216.986 12.6167C214.842 10.6007 211.498 9.59266 206.954 9.59266H188.378L188.426 17.6087H202.442C204.746 17.6087 206.362 17.8807 207.29 18.4247C208.25 18.9367 208.73 19.8007 208.73 21.0167C208.73 22.1687 208.714 23.0487 208.682 23.6567C204.906 21.2887 201.002 20.1047 196.97 20.1047C193.578 20.1047 190.81 20.7927 188.666 22.1687C186.522 23.5447 185.45 25.5767 185.45 28.2647ZM197.018 28.2167C197.018 27.4807 197.258 26.9047 197.738 26.4887C198.25 26.0407 198.746 25.7687 199.226 25.6727C199.706 25.5447 200.202 25.4807 200.714 25.4807C201.482 25.4807 202.426 25.6087 203.546 25.8647C204.698 26.1207 205.658 26.3767 206.426 26.6327L207.578 27.0647C207.514 27.1607 207.418 27.2887 207.29 27.4487C207.194 27.6087 206.938 27.8967 206.522 28.3127C206.106 28.7287 205.658 29.0967 205.178 29.4167C204.698 29.7367 204.074 30.0247 203.306 30.2807C202.538 30.5367 201.754 30.6647 200.954 30.6647C199.898 30.6647 198.97 30.4727 198.17 30.0887C197.402 29.6727 197.018 29.0487 197.018 28.2167ZM197.738 28.2167C197.738 28.8567 198.074 29.3047 198.746 29.5607C199.45 29.8167 200.186 29.9447 200.954 29.9447C203.098 29.9447 204.922 29.1127 206.426 27.4487C203.994 26.6167 202.106 26.2007 200.762 26.2007C198.746 26.2007 197.738 26.8727 197.738 28.2167Z" fill="#F9F9F9"/>
<path d="M265.814 42.1847H252.806V37.3367H239.27V42.1847H226.214L226.406 27.6407H228.854C230.102 27.6407 231.254 26.9527 232.31 25.5767C233.398 24.1687 234.278 22.3607 234.95 20.1527C235.654 17.9127 236.182 15.9927 236.534 14.3927C236.886 12.7927 237.174 11.2407 237.398 9.73666V8.87266H261.014L261.11 27.6407H265.622L265.814 42.1847ZM253.526 41.4647H265.094L264.95 28.3607H260.39L260.294 9.59266H238.118V9.78466C237.766 12.2807 237.318 14.5847 236.774 16.6967C236.23 18.8087 235.574 20.7767 234.806 22.6007C234.07 24.3927 233.19 25.8007 232.166 26.8247C231.142 27.8487 230.038 28.3607 228.854 28.3607H227.078L226.982 41.4647H238.55V36.6167H253.526V41.4647ZM248.822 28.3607H247.142C246.822 28.3607 246.486 28.3927 246.134 28.4567C245.814 28.4887 245.494 28.5367 245.174 28.6007C244.886 28.6647 244.534 28.7767 244.118 28.9367C243.734 29.0967 243.398 29.2247 243.11 29.3207C242.854 29.4167 242.486 29.5767 242.006 29.8007C241.558 30.0247 241.222 30.2007 240.998 30.3287C240.774 30.4247 240.406 30.6167 239.894 30.9047C239.382 31.1607 239.03 31.3527 238.838 31.4807C238.678 31.5767 238.31 31.7847 237.734 32.1047C237.19 32.4247 236.854 32.6167 236.726 32.6807L235.622 30.6647C238.726 29.0967 241.238 27.1927 243.158 24.9527C245.078 22.7127 246.246 20.3447 246.662 17.8487H248.822V28.3607ZM248.102 27.6407V18.5687H247.238C246.662 21.1927 245.398 23.5607 243.446 25.6727C241.526 27.7847 239.254 29.5607 236.63 31.0007L237.014 31.6727C239.446 30.3287 240.918 29.5287 241.43 29.2727C243.67 28.1847 245.574 27.6407 247.142 27.6407H248.102Z" fill="#F9F9F9"/>
<path d="M44.44 12.0407C45.848 14.4087 46.552 17.0167 46.552 19.8647C46.552 22.7127 45.848 25.3367 44.44 27.7367C43.032 30.1047 41.192 32.0247 38.92 33.4967C36.68 34.9687 34.248 36.1047 31.624 36.9047C29 37.7047 26.376 38.1047 23.752 38.1047C21.704 38.1047 19.624 37.8487 17.512 37.3367C15.4 36.8567 13.352 36.1047 11.368 35.0807C9.384 34.0567 7.624 32.8407 6.088 31.4327C4.552 30.0247 3.32 28.3287 2.392 26.3447C1.464 24.3287 1 22.1687 1 19.8647C1 17.0167 1.704 14.4087 3.112 12.0407C4.52 9.64066 6.344 7.70466 8.584 6.23266C10.824 4.72866 13.256 3.57666 15.88 2.77666C18.536 1.97666 21.16 1.57666 23.752 1.57666C26.376 1.57666 29 1.97666 31.624 2.77666C34.248 3.57666 36.68 4.72866 38.92 6.23266C41.192 7.70466 43.032 9.64066 44.44 12.0407ZM39.352 7.43266C35.064 4.00866 29.864 2.29666 23.752 2.29666C17.64 2.29666 12.44 4.00866 8.152 7.43266C3.864 10.8567 1.72 15.0007 1.72 19.8647C1.72 24.6967 3.864 28.8247 8.152 32.2487C12.44 35.6727 17.64 37.3847 23.752 37.3847C27.752 37.3847 31.448 36.6007 34.84 35.0327C38.232 33.4647 40.904 31.3367 42.856 28.6487C44.84 25.9607 45.832 23.0327 45.832 19.8647C45.832 15.0007 43.672 10.8567 39.352 7.43266ZM31.096 26.9687C29.08 28.5687 26.632 29.3687 23.752 29.3687C20.872 29.3687 18.44 28.5847 16.456 27.0167C14.504 25.4487 13.528 23.1287 13.528 20.0567C13.528 16.9847 14.52 14.6327 16.504 13.0007C18.488 11.3367 20.984 10.5207 23.992 10.5527C27.096 10.6167 29.56 11.4487 31.384 13.0487C33.208 14.6167 34.12 16.9527 34.12 20.0567C34.12 23.0327 33.112 25.3367 31.096 26.9687ZM33.4 20.0567C33.4 17.2087 32.552 15.0327 30.856 13.5287C29.192 12.0247 26.904 11.2727 23.992 11.2727C21.08 11.2727 18.728 12.0407 16.936 13.5767C15.144 15.0807 14.248 17.2407 14.248 20.0567C14.248 22.7767 15.112 24.8887 16.84 26.3927C18.6 27.8967 20.904 28.6487 23.752 28.6487C26.568 28.6487 28.872 27.8967 30.664 26.3927C32.488 24.8567 33.4 22.7447 33.4 20.0567Z" stroke="#F9F9F9" stroke-width="2" mask="url(#path-1-outside-1_25_354)"/>
<path d="M87.6779 37.3367H74.6699V18.5687H69.7739C69.5499 20.3287 69.3099 21.9127 69.0539 23.3207C68.7979 24.6967 68.3499 26.3607 67.7099 28.3127C67.0699 30.2327 66.3179 31.8487 65.4539 33.1607C64.5899 34.4407 63.4219 35.5447 61.9499 36.4727C60.4779 37.4007 58.8139 37.8647 56.9579 37.8647C55.9979 37.8647 53.9819 37.7527 50.9099 37.5287H50.1899L50.3339 27.4007H51.0539C51.6619 27.4327 52.6059 27.4487 53.8859 27.4487C55.7739 27.4487 57.1499 25.0167 58.0139 20.1527C58.5899 16.7607 59.0699 13.2887 59.4539 9.73666V8.87266H87.5819L87.6779 37.3367ZM75.3899 36.6167H86.9579L86.8619 9.59266H60.1739V9.78466C59.9499 11.5767 59.7579 13.0007 59.5979 14.0567C59.4699 15.1127 59.3099 16.3287 59.1179 17.7047C58.9259 19.0807 58.7339 20.1527 58.5419 20.9207C58.3819 21.6887 58.1739 22.5367 57.9179 23.4647C57.6939 24.3927 57.4539 25.0967 57.1979 25.5767C56.9419 26.0567 56.6379 26.5207 56.2859 26.9687C55.9659 27.4167 55.5979 27.7367 55.1819 27.9287C54.7979 28.0887 54.3659 28.1687 53.8859 28.1687L51.0539 28.1207L50.9579 36.8087L56.3339 37.0967C58.0619 37.1927 59.6139 36.8887 60.9899 36.1847C62.3979 35.4807 63.5339 34.5367 64.3979 33.3527C65.2939 32.1687 66.0619 30.6807 66.7019 28.8887C67.3739 27.0967 67.8699 25.3527 68.1899 23.6567C68.5419 21.9287 68.8459 19.9927 69.1019 17.8487H75.3899V36.6167Z" stroke="#F9F9F9" stroke-width="2" mask="url(#path-1-outside-1_25_354)"/>
<path d="M128.437 8.87266V37.3367H116.533V28.2167H105.637L111.397 37.4327H90.2766V27.5927H95.7006C95.7006 27.5607 95.6846 27.5127 95.6526 27.4487V27.3527C95.6526 25.3047 97.1566 24.1207 100.165 23.8007V23.2247C99.0766 23.1927 98.0206 23.0487 96.9966 22.7927C96.0046 22.5047 95.0286 22.1047 94.0686 21.5927C93.1086 21.0807 92.3246 20.3447 91.7166 19.3847C91.1406 18.4247 90.8526 17.3207 90.8526 16.0727C90.8526 11.2727 95.7326 8.87266 105.493 8.87266H128.437ZM127.717 36.6167V9.59266H105.493C103.477 9.59266 101.701 9.68866 100.165 9.88066C98.6286 10.0727 97.1726 10.3927 95.7966 10.8407C94.4526 11.2887 93.4126 11.9607 92.6766 12.8567C91.9406 13.7207 91.5726 14.7927 91.5726 16.0727C91.5726 18.1527 92.4686 19.7527 94.2606 20.8727C96.0526 21.9927 98.2606 22.5527 100.885 22.5527V24.4727C98.8686 24.6647 97.5886 25.0487 97.0446 25.6247C96.5006 26.2007 96.3086 27.0967 96.4686 28.3127H90.9966V36.7127H110.101L104.341 27.4967H117.253V36.6167H127.717ZM117.253 16.3127V21.1127H105.685C103.125 21.1127 101.845 20.3927 101.845 18.9527C101.845 18.1207 102.229 17.4807 102.997 17.0327C103.765 16.5527 104.629 16.3127 105.589 16.3127H117.253ZM116.533 20.3927V17.0327H105.589C104.757 17.0327 104.037 17.2247 103.429 17.6087C102.853 17.9607 102.565 18.4087 102.565 18.9527C102.565 19.9127 103.605 20.3927 105.685 20.3927H116.533Z" stroke="#F9F9F9" stroke-width="2" mask="url(#path-1-outside-1_25_354)"/>
<path d="M178.281 27.4967H183.753V37.4327H162.729L168.489 25.9607H157.497V37.3367H145.593V2.29666H157.497V15.5447H157.977L171.129 2.29666H185.625L177.753 11.6567C174.553 15.4647 168.777 18.1847 160.425 19.8167V20.5367C160.809 20.4087 162.409 19.8327 165.225 18.8087C167.753 18.0087 169.801 17.6087 171.369 17.6087C173.737 17.6087 175.449 18.1847 176.505 19.3367C177.561 20.4567 178.137 22.1847 178.233 24.5207C178.265 25.1607 178.281 26.1527 178.281 27.4967ZM177.225 22.1207C176.969 20.9047 176.329 19.9767 175.305 19.3367C174.281 18.6647 172.969 18.3287 171.369 18.3287C169.705 18.3287 167.881 18.6807 165.897 19.3847C162.889 20.4727 160.825 21.1927 159.705 21.5447V19.2407C168.249 17.6087 174.089 14.9207 177.225 11.1767L184.041 3.01666H171.417L158.265 16.2647H156.777V3.01666H146.313V36.6167H156.777V25.2407H169.689L163.881 36.7127H183.033V28.2167H177.561C177.561 25.1767 177.449 23.1447 177.225 22.1207Z" stroke="#F9F9F9" stroke-width="2" mask="url(#path-1-outside-1_25_354)"/>
<path d="M196.97 19.3847C200.778 19.3847 204.458 20.3927 208.01 22.4087V21.0167C208.01 19.8967 207.434 19.1287 206.282 18.7127C205.546 18.4567 204.266 18.3287 202.442 18.3287H187.706L187.658 8.87266H206.954C211.626 8.87266 215.13 9.92866 217.466 12.0407C219.802 14.1527 220.97 17.5447 220.97 22.2167L221.018 27.5927H225.77V37.3847H212.186C211.162 37.3847 210.314 36.9527 209.642 36.0887C209.002 35.1927 208.682 34.2647 208.682 33.3047C208.682 31.9927 209.306 30.5847 210.554 29.0807L210.17 28.9367C208.986 31.7527 207.242 33.9447 204.938 35.5127C202.634 37.0487 199.93 37.8167 196.826 37.8167C194.906 37.8167 193.05 37.4967 191.258 36.8567C189.498 36.2167 187.962 35.1447 186.65 33.6407C185.37 32.1367 184.73 30.3447 184.73 28.2647C184.73 26.6007 185.114 25.1607 185.882 23.9447C186.65 22.7287 187.658 21.8167 188.906 21.2087C190.186 20.5687 191.482 20.1047 192.794 19.8167C194.138 19.5287 195.53 19.3847 196.97 19.3847ZM185.45 28.2647C185.45 30.8887 186.554 33.0167 188.762 34.6487C190.97 36.2807 193.658 37.0967 196.826 37.0967C199.61 37.0967 202.154 36.3927 204.458 34.9847C206.794 33.5447 208.57 31.2087 209.786 27.9767L211.802 28.8407C210.202 30.2487 209.402 31.7367 209.402 33.3047C209.402 34.1687 209.674 34.9527 210.218 35.6567C210.762 36.3287 211.418 36.6647 212.186 36.6647H225.05V28.3127H220.298L220.25 22.2167C220.25 17.8007 219.162 14.6007 216.986 12.6167C214.842 10.6007 211.498 9.59266 206.954 9.59266H188.378L188.426 17.6087H202.442C204.746 17.6087 206.362 17.8807 207.29 18.4247C208.25 18.9367 208.73 19.8007 208.73 21.0167C208.73 22.1687 208.714 23.0487 208.682 23.6567C204.906 21.2887 201.002 20.1047 196.97 20.1047C193.578 20.1047 190.81 20.7927 188.666 22.1687C186.522 23.5447 185.45 25.5767 185.45 28.2647ZM197.018 28.2167C197.018 27.4807 197.258 26.9047 197.738 26.4887C198.25 26.0407 198.746 25.7687 199.226 25.6727C199.706 25.5447 200.202 25.4807 200.714 25.4807C201.482 25.4807 202.426 25.6087 203.546 25.8647C204.698 26.1207 205.658 26.3767 206.426 26.6327L207.578 27.0647C207.514 27.1607 207.418 27.2887 207.29 27.4487C207.194 27.6087 206.938 27.8967 206.522 28.3127C206.106 28.7287 205.658 29.0967 205.178 29.4167C204.698 29.7367 204.074 30.0247 203.306 30.2807C202.538 30.5367 201.754 30.6647 200.954 30.6647C199.898 30.6647 198.97 30.4727 198.17 30.0887C197.402 29.6727 197.018 29.0487 197.018 28.2167ZM197.738 28.2167C197.738 28.8567 198.074 29.3047 198.746 29.5607C199.45 29.8167 200.186 29.9447 200.954 29.9447C203.098 29.9447 204.922 29.1127 206.426 27.4487C203.994 26.6167 202.106 26.2007 200.762 26.2007C198.746 26.2007 197.738 26.8727 197.738 28.2167Z" stroke="#F9F9F9" stroke-width="2" mask="url(#path-1-outside-1_25_354)"/>
<path d="M265.814 42.1847H252.806V37.3367H239.27V42.1847H226.214L226.406 27.6407H228.854C230.102 27.6407 231.254 26.9527 232.31 25.5767C233.398 24.1687 234.278 22.3607 234.95 20.1527C235.654 17.9127 236.182 15.9927 236.534 14.3927C236.886 12.7927 237.174 11.2407 237.398 9.73666V8.87266H261.014L261.11 27.6407H265.622L265.814 42.1847ZM253.526 41.4647H265.094L264.95 28.3607H260.39L260.294 9.59266H238.118V9.78466C237.766 12.2807 237.318 14.5847 236.774 16.6967C236.23 18.8087 235.574 20.7767 234.806 22.6007C234.07 24.3927 233.19 25.8007 232.166 26.8247C231.142 27.8487 230.038 28.3607 228.854 28.3607H227.078L226.982 41.4647H238.55V36.6167H253.526V41.4647ZM248.822 28.3607H247.142C246.822 28.3607 246.486 28.3927 246.134 28.4567C245.814 28.4887 245.494 28.5367 245.174 28.6007C244.886 28.6647 244.534 28.7767 244.118 28.9367C243.734 29.0967 243.398 29.2247 243.11 29.3207C242.854 29.4167 242.486 29.5767 242.006 29.8007C241.558 30.0247 241.222 30.2007 240.998 30.3287C240.774 30.4247 240.406 30.6167 239.894 30.9047C239.382 31.1607 239.03 31.3527 238.838 31.4807C238.678 31.5767 238.31 31.7847 237.734 32.1047C237.19 32.4247 236.854 32.6167 236.726 32.6807L235.622 30.6647C238.726 29.0967 241.238 27.1927 243.158 24.9527C245.078 22.7127 246.246 20.3447 246.662 17.8487H248.822V28.3607ZM248.102 27.6407V18.5687H247.238C246.662 21.1927 245.398 23.5607 243.446 25.6727C241.526 27.7847 239.254 29.5607 236.63 31.0007L237.014 31.6727C239.446 30.3287 240.918 29.5287 241.43 29.2727C243.67 28.1847 245.574 27.6407 247.142 27.6407H248.102Z" stroke="#F9F9F9" stroke-width="2" mask="url(#path-1-outside-1_25_354)"/>
</svg>
